<?xml version="1.0" encoding="UTF-8" standalone="no"?><!DOCTYPE svg PUBLIC "-//W3C//DTD SVG 1.1//EN" "http://www.w3.org/Graphics/SVG/1.1/DTD/svg11.dtd"><svg width="100%" height="100%" viewBox="0 0 240 240" version="1.1" xmlns="http://www.w3.org/2000/svg" xmlns:xlink="http://www.w3.org/1999/xlink" xml:space="preserve" xmlns:serif="http://www.serif.com/" style="fill-rule:evenodd;clip-rule:evenodd;stroke-linejoin:round;stroke-miterlimit:1.41421;"><g id="Mission-Symbol" serif:id="Mission Symbol"><g id="Concentric-Circles" serif:id="Concentric Circles"><circle cx="120" cy="120" r="94.244" style="fill:#fff;"/><path d="M120,25.756c52.015,0 94.244,42.229 94.244,94.244c0,52.015 -42.229,94.244 -94.244,94.244c-52.015,0 -94.244,-42.229 -94.244,-94.244c0,-52.015 42.229,-94.244 94.244,-94.244Zm0,19.791c41.092,0 74.453,33.361 74.453,74.453c0,41.092 -33.361,74.453 -74.453,74.453c-41.092,0 -74.453,-33.361 -74.453,-74.453c0,-41.092 33.361,-74.453 74.453,-74.453Z" style="fill:#d75947;"/><path d="M120,65.338c30.169,0 54.662,24.493 54.662,54.662c0,30.169 -24.493,54.662 -54.662,54.662c-30.169,0 -54.662,-24.493 -54.662,-54.662c0,-30.169 24.493,-54.662 54.662,-54.662Zm0,19.792c19.245,0 34.87,15.625 34.87,34.87c0,19.245 -15.625,34.87 -34.87,34.87c-19.245,0 -34.87,-15.625 -34.87,-34.87c0,-19.245 15.625,-34.87 34.87,-34.87Z" style="fill:#d75947;"/><circle cx="120" cy="120" r="15.079" style="fill:#d75947;"/></g><g id="Arrow"><g><path d="M198.845,46.153l16.118,-16.118l-4.998,-4.998l-16.118,16.118l4.998,4.998Z" style="fill:#3e3e3e;"/><path d="M120,120c1.379,1.379 3.619,1.379 4.998,0l79.831,-79.831c1.379,-1.379 1.379,-3.619 0,-4.998c-1.379,-1.379 -3.619,-1.379 -4.998,0l-79.831,79.831c-1.379,1.379 -1.379,3.619 0,4.998Z" style="fill:#3e3e3e;"/></g><path d="M229.756,29.57l-15.327,15.327l-14.828,0.5l15.327,-15.327l14.828,-0.5Z" style="fill:#d75947;"/><path d="M209.93,25.072l-15.327,15.327l0.5,-14.828l15.327,-15.327l-0.5,14.828Z" style="fill:#d75947;"/></g></g></svg>